<?xml version="1.0" standalone="no"?>
<!DOCTYPE svg PUBLIC "-//W3C//DTD SVG 20010904//EN"
 "http://www.w3.org/TR/2001/REC-SVG-20010904/DTD/svg10.dtd">
<svg version="1.0" xmlns="http://www.w3.org/2000/svg"
 width="1000.000000pt" height="1000.000000pt" viewBox="0 0 1000.000000 1000.000000"
 preserveAspectRatio="xMidYMid meet">
<metadata>
Created by potrace 1.14, written by Peter Selinger 2001-2017
</metadata>
<g transform="translate(0.000000,1000.000000) scale(0.100000,-0.100000)"
fill="#000000" stroke="none">
<path d="M4777 9154 c-1 -1 -56 -4 -122 -8 -66 -4 -133 -9 -150 -11 -16 -2
-55 -7 -85 -10 -79 -9 -114 -14 -210 -31 -47 -9 -96 -18 -110 -20 -150 -27
-542 -140 -635 -184 -11 -5 -67 -27 -125 -50 -121 -48 -403 -187 -503 -248
-37 -23 -70 -42 -73 -42 -2 0 -10 -5 -17 -10 -21 -18 -116 -80 -122 -80 -3 0
-11 -5 -18 -11 -7 -6 -50 -37 -97 -71 -189 -134 -393 -309 -562 -484 l-69 -71
-87 87 c-48 48 -102 104 -120 124 -18 20 -57 53 -87 72 -53 36 -55 36 -104 24
-28 -6 -54 -17 -59 -23 -41 -50 -145 -289 -158 -363 -7 -37 -13 -42 -28 -24
-6 8 -23 25 -37 38 l-26 23 -60 -93 c-287 -447 -519 -880 -577 -1082 -38 -131
-14 -204 103 -311 24 -22 94 -88 154 -148 l110 -107 -31 -148 c-18 -81 -34
-160 -37 -177 -18 -124 -25 -166 -30 -210 -3 -27 -8 -66 -10 -85 -28 -223 -23
-735 10 -920 2 -14 7 -52 11 -85 3 -33 8 -62 9 -65 2 -3 6 -30 10 -60 4 -30 8
-57 10 -60 2 -3 6 -25 10 -50 4 -25 8 -47 10 -51 2 -3 7 -19 9 -36 11 -62 69
-273 108 -392 31 -95 41 -143 43 -205 3 -104 23 -150 69 -166 28 -9 39 -21 58
-63 148 -334 429 -763 678 -1037 197 -216 488 -478 666 -600 156 -106 236
-160 240 -160 3 0 24 -13 47 -28 23 -16 49 -32 57 -36 8 -3 47 -25 85 -47 63
-35 331 -169 341 -169 2 0 27 -11 56 -24 81 -36 386 -145 454 -161 10 -3 80
-20 155 -39 75 -19 152 -37 171 -40 19 -3 41 -8 49 -10 12 -5 160 -27 264 -41
143 -19 301 -28 490 -29 162 0 407 10 451 18 11 2 45 7 75 10 56 6 271 40 324
51 17 3 50 11 75 16 25 6 52 12 60 14 103 22 310 84 465 140 614 222 1157 582
1623 1079 29 31 56 56 59 56 11 0 316 111 439 160 367 146 480 233 491 374 7
83 -24 151 -105 236 l-62 63 5 101 c2 56 9 133 16 171 7 39 13 111 14 160 1
64 8 106 23 145 49 127 143 481 158 590 2 19 6 42 9 50 2 8 7 35 10 60 3 25 8
56 10 70 26 158 39 355 39 590 1 177 -9 383 -19 435 -2 11 -7 45 -10 76 -3 31
-7 65 -9 75 -2 11 -7 42 -10 69 -10 68 -66 345 -77 373 -17 44 -9 65 63 156
40 50 128 163 197 251 69 88 128 162 131 165 4 3 26 32 51 65 24 33 46 62 49
65 37 37 37 37 -58 133 l-92 92 69 89 c79 104 81 118 27 218 -41 75 -70 109
-209 250 -61 62 -136 139 -166 171 -37 39 -61 57 -78 57 -60 0 -164 -72 -287
-199 -43 -45 -80 -81 -83 -81 -5 0 -92 88 -231 234 -46 47 -87 84 -92 81 -6
-3 -29 -38 -52 -76 l-41 -71 -31 34 c-17 18 -62 69 -101 113 -142 161 -367
370 -555 516 -508 394 -1171 691 -1778 795 -15 3 -34 7 -42 9 -8 2 -37 7 -65
10 -27 3 -61 8 -75 10 -59 11 -155 22 -275 31 -78 6 -452 13 -458 8z"/>
</g>
</svg>
